<svg xmlns="http://www.w3.org/2000/svg" xmlns:xlink="http://www.w3.org/1999/xlink" version="1.1" x="0px" y="0px" viewBox="0 0 60 60" enable-background="new 0 0 60 60" xml:space="preserve"><g><path fill="#000000" d="M29,60h24V36H29V60z M31,38h20v20h-9V45.41l4.29,4.29l1.41-1.41L41,41.59l-6.71,6.71l1.41,1.41L40,45.41V58   h-9V38z"></path><path fill="#000000" d="M29,26.02c-1.44,0.37-2.57,1.52-2.9,2.98H19c-0.55,0-1,0.45-1,1s0.45,1,1,1h7.18   c0.49,1.66,2.01,2.88,3.82,2.88c2.21,0,4-1.79,4-4c0-1.86-1.28-3.41-3-3.86V15.88c0-0.55-0.45-1-1-1s-1,0.45-1,1V26.02z M32,29.88   c0,1.1-0.9,2-2,2s-2-0.9-2-2s0.9-2,2-2S32,28.78,32,29.88z"></path><path fill="#000000" d="M30,9.88c0.55,0,1-0.45,1-1v-1c0-0.55-0.45-1-1-1s-1,0.45-1,1v1C29,9.43,29.45,9.88,30,9.88z"></path><path fill="#000000" d="M52,28.88h-1c-0.55,0-1,0.45-1,1s0.45,1,1,1h1c0.55,0,1-0.45,1-1S52.55,28.88,52,28.88z"></path><path fill="#000000" d="M8,28.88c-0.55,0-1,0.45-1,1s0.45,1,1,1h1c0.55,0,1-0.45,1-1s-0.45-1-1-1H8z"></path><path fill="#000000" d="M45.56,15.74l0.71-0.71c0.39-0.39,0.39-1.02,0-1.41s-1.02-0.39-1.41,0l-0.71,0.71   c-0.39,0.39-0.39,1.02,0,1.41c0.2,0.2,0.45,0.29,0.71,0.29S45.36,15.93,45.56,15.74z"></path><path fill="#000000" d="M14.44,44.02l-0.71,0.71c-0.39,0.39-0.39,1.02,0,1.41c0.2,0.2,0.45,0.29,0.71,0.29s0.51-0.1,0.71-0.29   l0.71-0.71c0.39-0.39,0.39-1.02,0-1.41S14.83,43.63,14.44,44.02z"></path><path fill="#000000" d="M15.86,14.32l-0.71-0.71c-0.39-0.39-1.02-0.39-1.41,0s-0.39,1.02,0,1.41l0.71,0.71   c0.2,0.2,0.45,0.29,0.71,0.29s0.51-0.1,0.71-0.29C16.25,15.35,16.25,14.71,15.86,14.32z"></path><path fill="#000000" d="M30,0C13.46,0,0,13.46,0,30c0,13.83,9.36,25.8,22.76,29.12c0.08,0.02,0.16,0.03,0.24,0.03   c0.45,0,0.86-0.3,0.97-0.76c0.13-0.54-0.19-1.08-0.73-1.21C10.74,54.08,2,42.9,2,30C2,14.56,14.56,2,30,2s28,12.56,28,28   c0,3.47-0.63,6.86-1.88,10.09c-0.2,0.51,0.06,1.09,0.57,1.29c0.51,0.2,1.09-0.06,1.29-0.57C59.32,37.35,60,33.71,60,30   C60,13.46,46.54,0,30,0z"></path></g></svg>